PathFileType	4	(X/Y/Z)	Patient4_TMGait_0pt4_01_right_32.trc.trc
DataRate	CameraRate	NumFrames	NumMarkers	Units	OrigDataRate	OrigDataStartFrame	OrigNumFrames
74.074074074074	74.074074074074	4	33	mm	74.074074074074	53	       141
Frame#	Time	Sacral			L.Shoulder			Chest			R.Shoulder			Neck			R.ASIS			L.ASIS			R.Thigh.Superior			R.Thigh.Lateral			R.Thigh.Inferior			R.Patella			L.Thigh.Superior			L.Thigh.Lateral			L.Thigh.Inferior			L.Patella			L.Shank.Superior			L.Shank.Lateral			L.Shank.Inferior			R.Shank.Superior			R.Shank.Lateral			R.Shank.Inferior			R.Heel			R.Midfoot.Superior			R.Midfoot.Lateral			R.Toe			L.Heel			L.Midfoot.Lateral			L.Midfoot.Superior			L.Toe			L.Elbow			L.Wrist			R.Elbow			R.Wrist			
		X1	Y1	Z1	X2	Y2	Z2	X3	Y3	Z3	X4	Y4	Z4	X5	Y5	Z5	X6	Y6	Z6	X7	Y7	Z7	X8	Y8	Z8	X9	Y9	Z9	X10	Y10	Z10	X11	Y11	Z11	X12	Y12	Z12	X13	Y13	Z13	X14	Y14	Z14	X15	Y15	Z15	X16	Y16	Z16	X17	Y17	Z17	X18	Y18	Z18	X19	Y19	Z19	X20	Y20	Z20	X21	Y21	Z21	X22	Y22	Z22	X23	Y23	Z23	X24	Y24	Z24	X25	Y25	Z25	X26	Y26	Z26	X27	Y27	Z27	X28	Y28	Z28	X29	Y29	Z29	X30	Y30	Z30	X31	Y31	Z31	X32	Y32	Z32	X33	Y33	Z33	

53	42.192000000000	816.217325570906	1006.084343915822	560.787027328892	976.306762531705	1434.679380072207	364.429363194558	1091.222780160342	1371.538499945145	519.289190350458	1018.951519314244	1446.155437590690	697.972470242165	968.415872061344	1498.910089956665	520.919915179237	1052.524805810388	947.029838740416	661.360212495236	1020.030178539407	968.544263156312	388.265749236073	1078.637885445981	740.538183011165	627.412347911272	994.643468036288	634.339430376908	692.431053120317	1062.541044668733	580.252451451723	608.245592962955	1057.153176549223	494.989168541510	613.586355315578	1105.581913141773	789.230512694107	408.957232861893	1058.638397554558	661.366344416765	328.645317276778	1166.685554316519	601.987749045101	379.404579005466	1186.017191034051	521.255946353155	370.670347911212	1140.750567572653	446.064734423587	364.435423186467	1021.464251470476	360.257861057789	316.904314223335	1056.643818655176	233.373882014517	368.694725415539	1029.577515877044	405.040209190943	619.981730671609	959.333306142835	300.812427833610	683.095487301021	998.875971099715	207.394435949787	614.932858587761	864.310969882382	42.195112004199	586.125380578161	1036.421401158072	97.844646816941	614.344972568896	951.167938621179	36.132387250565	657.127455279608	1158.323943276168	46.698402023269	634.650621190162	903.935331554880	103.652777164485	409.134620487918	970.219293112218	85.620473984874	325.282956106848	1065.036593186860	131.445839288291	344.710677665579	1176.999833298462	58.141349331619	309.011442711771	933.917355038829	1083.705192688689	248.209730712754	1051.570718977669	848.249280099585	226.817912079235	1017.674113032202	1115.119193494325	855.448633344735	1186.266488181947	918.284064582673	842.967975055508	
54	42.205500000000	815.866242358045	1006.329388824270	562.310759382071	975.222233331043	1434.910936927908	366.026057064050	1091.155831493252	1371.253645763660	519.937977291551	1020.361933972238	1445.704592886625	699.273694076262	968.585995784201	1498.798848472080	522.834680462809	1052.233303068830	946.638652942414	661.761149856017	1018.741534700697	968.654641382840	388.758539135733	1076.476496893089	739.935671062157	627.790784121573	991.761394742749	634.243849144396	693.041296394009	1058.934166998414	579.687738644066	608.749464073487	1052.927633537271	494.597498181960	614.147094468025	1103.374515066297	788.875565644840	409.255601932752	1056.279996611987	661.300408888966	328.630008096408	1163.648008156917	601.553531394697	380.315975166787	1184.064799167320	522.969330589266	371.411436066210	1142.843178770645	447.708651499994	364.241821158751	1029.726797303626	354.858032153661	315.536069633200	1073.158961298656	229.969035097413	366.517417628849	1025.076627564198	404.785632802177	620.383253893213	954.508636683068	300.672115991885	683.264692719238	993.803936015264	207.206721814236	615.077362926732	858.892924631789	42.212649427856	586.114975819367	1030.980106881496	97.689052893355	614.259626622197	945.742348415724	36.134745246295	657.120240198559	1152.915619323715	46.491560446064	634.742779634199	929.407415007330	90.434136727589	405.839788090697	996.973208574709	76.957355323072	322.103965543602	1088.782556689516	128.443258529416	341.939385277933	1205.222316685500	62.346695993824	306.325713653742	927.034636449858	1084.473993531440	250.621995203464	1040.557844619491	847.127730557996	227.937098874678	1023.687177098360	1114.151389709608	855.942074616421	1194.829056769441	919.661909343281	840.770215539439	
55	42.219000000000	815.565138712930	1006.466514461119	563.618340416870	974.320610671811	1435.002429766994	367.415465859331	1091.124764996310	1370.886925391705	520.495812373184	1021.612289979855	1445.163697647969	700.398577006482	968.781514577171	1498.583960505159	524.538649236695	1052.002608833012	946.152033223365	662.096932118587	1017.586961110050	968.592227190099	389.199889509531	1074.561972510435	739.288582178334	628.085807425031	989.150583950198	634.086935223437	693.551133261099	1055.587686342119	579.082003549020	609.123969397176	1048.958911323487	494.145168328253	614.564328122691	1100.906573069353	787.855424472887	409.472396641813	1053.412709223843	660.801863802205	328.456802528387	1159.869013304797	600.396237213794	381.394052125710	1181.300495122727	524.145455519071	372.363216948886	1144.173323750257	449.169474475155	364.142002118454	1037.803383103438	349.574810639524	314.014772555371	1089.310490651888	227.196562963627	364.380294203022	1020.826363224112	404.478442866595	620.663706120840	949.919055509328	300.510035114149	683.367419876388	988.851173995053	206.971865466948	615.143827435217	853.475322339995	42.241086604382	586.098165683243	1025.551868827607	97.516305827085	614.156349658015	940.323173789081	36.145734833424	657.106940327568	1147.519356761435	46.236858258619	634.832174128326	954.940446300020	78.530542091224	402.330720088318	1023.825324009027	69.368047827981	318.976729561373	1112.362277934246	126.254699863093	339.355209204509	1232.902932167999	67.260365189549	304.387467018625	920.542463034067	1085.148776179437	252.936137841397	1029.619841286285	845.885581938771	229.061163738892	1029.305596858813	1113.065534867291	856.059951515007	1203.328253156573	921.353452679947	838.071339548646	
56	42.232500000000	815.300049034762	1006.516807404104	564.731187319587	973.592344599605	1434.986629710696	368.586413278689	1091.123144380660	1370.466568129715	520.950215794659	1022.701757876640	1444.561457860254	701.340423070104	968.984826513093	1498.298295714019	526.003833613674	1051.838382405809	945.592677443436	662.351194927997	1016.541822948776	968.401803400393	389.575313268979	1072.904310156723	738.607078895959	628.269718148045	986.825166570780	633.870731259636	693.931102752476	1052.516329836339	578.440712195296	609.342816524678	1045.263549975402	493.635118287911	614.809659269594	1098.243599110719	786.311305038321	409.613916394439	1050.167741381059	659.988182026912	328.132084248131	1155.568644839376	598.720935845114	382.553599356141	1177.954306676321	524.911912743127	373.465190444860	1144.868322415900	450.524591003734	364.132123599064	1045.621370771933	344.664286706053	312.427059092652	1104.803159760519	225.245720490460	362.417324158671	1016.834591305634	404.120693101845	620.803285260796	945.574242286299	300.336820259298	683.399458576203	984.021113583489	206.697940518571	615.126963171461	848.061198121312	42.282527169981	586.080194956339	1020.146673497736	97.344489969231	614.057297585873	934.911481194734	36.167330784272	657.090632592214	1142.136273278159	45.938795290965	634.916743537955	979.948434839449	68.372986594594	398.833152872263	1050.185421039809	63.138063705817	316.124885497668	1135.281670167643	125.036565088586	337.134061299013	1259.466767772371	72.837986236319	303.391212617246	914.497730362943	1085.740009959670	255.136626196534	1018.790977648220	844.542197496431	230.184784774687	1034.495335555213	1111.882281736886	855.797291421144	1211.721309358659	923.422332692849	834.883388197804	
